<?xml version="1.0" encoding="UTF-8"?>
<svg version="1.1" xmlns="http://www.w3.org/2000/svg" width="1492" height="412">
<path d="M0 0 C492.36 0 984.72 0 1492 0 C1492 135.96 1492 271.92 1492 412 C999.64 412 507.28 412 0 412 C0 276.04 0 140.08 0 0 Z " fill="#FEFEFE" transform="translate(0,0)"/>
<path d="M0 0 C3.89995908 2.59859958 5.90950431 5.08416418 7.9453125 9.26953125 C8.72648437 10.85411133 8.72648437 10.85411133 9.5234375 12.47070312 C10.05195312 13.57349609 10.58046875 14.67628906 11.125 15.8125 C11.6303125 16.84181641 12.135625 17.87113281 12.65625 18.93164062 C15.23486458 24.2052219 17.76524031 29.50095823 20.27758789 34.80639648 C28.29893517 51.71515463 36.6635214 68.44627844 45.05285645 85.17437744 C46.97231056 89.00285723 48.88935785 92.83254186 50.80664062 96.66210938 C54.53547776 104.10921802 58.26686669 111.55504404 62 119 C58.99197928 122.03999452 56.03012887 124.85079684 52.625 127.4375 C35.46734388 141.04088756 21.85697071 156.67239811 10 175 C9.58927246 175.6276123 9.17854492 176.25522461 8.75537109 176.90185547 C2.95118351 185.88046382 -1.54515957 195.26067028 -5.82421875 205.046875 C-12.45394648 220.04725672 -19.57719517 234.78250049 -26.89575195 249.45727539 C-28.63072898 252.93836443 -30.34481896 256.42935349 -32.05507565 259.92263889 C-33.39894867 262.65868687 -34.75708593 265.38746558 -36.11929512 268.11442375 C-36.75886425 269.40073513 -37.39320214 270.68966281 -38.02189445 271.98132515 C-38.89252555 273.76661808 -39.7855467 275.54093907 -40.67944336 277.31469727 C-41.1776207 278.31976822 -41.67579803 279.32483917 -42.18907166 280.36036682 C-45.74122023 285.5380257 -50.91285171 287.55973091 -56.64672852 289.66625977 C-57.60229393 290.02102135 -57.60229393 290.02102135 -58.5771637 290.38294983 C-60.67510935 291.15979864 -62.77692237 291.92555893 -64.87890625 292.69140625 C-66.370541 293.24154272 -67.8619044 293.79241542 -69.35301208 294.34397888 C-73.28983969 295.79818298 -77.22996488 297.24322933 -81.17095947 298.68609619 C-85.83997374 300.3971029 -90.50550756 302.11756814 -95.17102623 303.83807945 C-98.9928273 305.24733573 -102.81556381 306.65389409 -106.64077759 308.05386353 C-113.95809451 310.7365342 -121.24953673 313.46751799 -128.49951172 316.32763672 C-129.83919601 316.85206942 -131.17895163 317.37631997 -132.51878357 317.90037537 C-134.99630298 318.86983291 -137.46265801 319.85867731 -139.92762756 320.86048889 C-150.18250532 324.87893313 -150.18250532 324.87893313 -156 323 C-158.75693184 320.5258304 -159.87037181 319.03332189 -160.33325195 315.34350586 C-159.8902291 310.8986722 -158.23704444 307.6398722 -156.23046875 303.69140625 C-155.64286018 302.49973091 -155.64286018 302.49973091 -155.04338074 301.28398132 C-153.76878075 298.7046942 -152.47814721 296.13378894 -151.1875 293.5625 C-150.30095614 291.77440201 -149.415708 289.98566102 -148.53173828 288.19628906 C-146.79590888 284.68415319 -145.05538209 281.17441657 -143.31103516 277.66650391 C-140.60818936 272.22142335 -137.97679139 266.74400318 -135.375 261.25 C-130.82396181 251.6823742 -126.19693886 242.15240551 -121.5625 232.625 C-116.66340417 222.5530994 -111.77443307 212.47695772 -106.9375 202.375 C-102.36188999 192.81937598 -97.75052523 183.28152643 -93.125 173.75 C-86.30473361 159.69541933 -79.50520737 145.63101745 -72.71777344 131.56054688 C-69.52072864 124.93381276 -66.32142004 118.30817142 -63.12243652 111.68237305 C-62.24567096 109.86638137 -61.3689224 108.05038148 -60.4921875 106.234375 C-60.20303467 105.63544434 -59.91388184 105.03651367 -59.6159668 104.41943359 C-57.60002464 100.24351322 -55.58501685 96.06714275 -53.5703125 91.890625 C-47.01485236 78.30307938 -40.44360588 64.72337344 -33.85635376 51.1512146 C-28.83847619 40.81127685 -23.84590667 30.45969719 -18.89208984 20.08886719 C-18.02071936 18.26745863 -17.14621959 16.44754266 -16.26806641 14.62939453 C-15.39149977 12.81179295 -14.52458977 10.98951407 -13.66552734 9.16357422 C-13.23320801 8.26268066 -12.80088867 7.36178711 -12.35546875 6.43359375 C-11.78348755 5.2259436 -11.78348755 5.2259436 -11.19995117 3.99389648 C-8.42788716 -0.61229818 -4.91527859 -0.5084771 0 0 Z " fill="#345C72" transform="translate(746,44)"/>
<path d="M0 0 C2.81972161 2.47682486 4.25437946 5.13999995 5.91992188 8.48339844 C6.48481323 9.61018005 7.04970459 10.73696167 7.63171387 11.89788818 C8.24423428 13.13496381 8.85657454 14.37212864 9.46875 15.609375 C10.11024807 16.89543704 10.75222485 18.18126039 11.39465332 19.46685791 C12.7465798 22.17531968 14.09455958 24.88569554 15.43945312 27.59765625 C17.1268511 31.00018971 18.82075716 34.39942165 20.51744843 37.79732895 C22.17036203 41.10844339 23.81960489 44.42138247 25.46875 47.734375 C25.91624855 48.63219318 25.91624855 48.63219318 26.37278748 49.54814911 C29.92664291 56.68472443 33.41191019 63.85034754 36.83394241 71.05115128 C42.53266213 83.03789026 48.43808141 94.90679063 54.45339203 106.73742676 C57.24220984 112.22861826 60.01422973 117.72829473 62.7890625 123.2265625 C66.28870802 130.15963619 69.793508 137.08994649 73.31738281 144.01074219 C76.19858442 149.67044216 79.06221101 155.33872171 81.91410065 161.01324463 C82.99696604 163.15987951 84.08625856 165.30328507 85.18215179 167.44329834 C86.70426345 170.41762597 88.20366085 173.4023913 89.69824219 176.390625 C90.1520929 177.26439789 90.6059436 178.13817078 91.07354736 179.03842163 C93.56898544 184.09688517 94.62511591 187.33495372 93 193 C90.91393306 195.93594606 89.68180693 196.83083413 86.18241882 197.69908142 C82.76928558 198.02181556 80.94974412 197.63596169 77.76879883 196.43969727 C76.76538956 196.07026001 75.76198029 195.70082275 74.72816467 195.32019043 C73.64869064 194.90644165 72.56921661 194.49269287 71.45703125 194.06640625 C70.31556137 193.64194214 69.17409149 193.21747803 67.99803162 192.78015137 C64.90474216 191.62684573 61.81663239 190.46134439 58.73042297 189.28932571 C55.52565543 188.07483092 52.31588217 186.87371992 49.10644531 185.67163086 C45.20203077 184.20845551 41.29818089 182.74385724 37.39694214 181.27223206 C29.23560041 178.19574964 21.05005922 175.1938695 12.83984375 172.25 C9.90111557 171.18838938 6.96294506 170.12525179 4.0249939 169.06149292 C2.18631938 168.39957333 0.34552622 167.7435074 -1.49740601 167.09353638 C-4.04110535 166.19490464 -6.57566771 165.27401699 -9.109375 164.34765625 C-9.84321915 164.09528198 -10.57706329 163.84290771 -11.33314514 163.58288574 C-19.96149331 160.3680378 -23.04531969 153.48421877 -26.87109375 145.61328125 C-27.31590591 144.71562546 -27.76071808 143.81796967 -28.2190094 142.89311218 C-29.63283912 140.03661742 -31.03563884 137.17488467 -32.4375 134.3125 C-33.83488686 131.47497132 -35.23460661 128.63861371 -36.63601685 125.80307007 C-37.535887 123.98206822 -38.43392673 122.16016059 -39.33004761 120.33731079 C-42.04401679 114.8397637 -44.87038471 109.4626901 -48.01000977 104.1940918 C-51.30783527 96.88519962 -48.70158858 87.48112222 -47 80 C-46.63261719 78.31970703 -46.63261719 78.31970703 -46.2578125 76.60546875 C-41.19530588 55.57142577 -30.48403641 35.80246478 -17 19 C-16.24589844 18.04222656 -15.49179687 17.08445313 -14.71484375 16.09765625 C-10.13319944 10.36863618 -5.31590069 5.05517532 0 0 Z " fill="#355C72" transform="translate(810,170)"/>
<path d="M0 0 C1.06025391 -0.01611328 2.12050781 -0.03222656 3.21289062 -0.04882812 C19.61598539 -0.05882392 34.75667942 5.44344692 46.62890625 16.92578125 C58.87279745 30.30863907 63.49759324 45.75156759 63.15625 63.68359375 C62.33766074 79.83367772 54.62563194 94.4734644 42.8125 105.3125 C26.83321988 117.33322953 8.44387742 120.06540138 -10.984375 117.88671875 C-26.59190278 115.00886012 -39.57140677 107.20454363 -49 94.4375 C-58.65920549 79.67531803 -61.13983151 63.30694349 -58.72265625 45.98046875 C-55.1282155 29.75231316 -45.51656016 16.74413687 -31.6640625 7.70703125 C-27.6592802 5.45197244 -23.55126497 3.74002621 -19.1875 2.3125 C-18.18460938 1.95414063 -17.18171875 1.59578125 -16.1484375 1.2265625 C-10.86819867 -0.24803471 -5.43998076 -0.01623875 0 0 Z " fill="#365D73" transform="translate(1194.1875,154.6875)"/>
<path d="M0 0 C7.59 0 15.18 0 23 0 C31.3048356 9.49124068 31.3048356 9.49124068 33.66015625 13.99609375 C37.18953546 20.45362963 41.24672158 26.47640741 45.375 32.5625 C46.65456296 34.50069693 47.93323592 36.43948176 49.2109375 38.37890625 C52.47795552 43.28973391 55.91167067 48.06002427 59.42041016 52.80053711 C61 55 61 55 62 57 C65.53579768 55.82140077 65.92549212 55.02293607 67.8984375 51.9765625 C68.45362061 51.12989014 69.00880371 50.28321777 69.58081055 49.41088867 C70.17289307 48.49154541 70.76497559 47.57220215 71.375 46.625 C72.63828177 44.69593237 73.9026275 42.76756112 75.16796875 40.83984375 C75.80782715 39.86128418 76.44768555 38.88272461 77.10693359 37.87451172 C80.43787992 32.8166626 83.83786962 27.80408375 87.33374023 22.85864258 C90.44226289 18.43603918 93.14946996 14.04395559 95.48730469 9.16455078 C97.56042291 5.80219035 100.37401676 2.95084715 103 0 C110.26 0 117.52 0 125 0 C125 37.62 125 75.24 125 114 C116.75 114 108.5 114 100 114 C99.67 91.89 99.34 69.78 99 47 C94.71 53.27 90.42 59.54 86 66 C77.32954545 78.65178571 77.32954545 78.65178571 75 82 C74.37544922 83.17949219 74.37544922 83.17949219 73.73828125 84.3828125 C70.74961381 87.16328063 67.24529795 86.85801742 63.3125 86.9375 C62.53455078 87.01162109 61.75660156 87.08574219 60.95507812 87.16210938 C58.27797159 87.22239451 56.49037975 87.00793399 54 86 C50.71346756 82.73856471 48.44106838 78.91412195 46 75 C44.78705974 73.19891782 43.55448951 71.41231603 42.320755 69.62542725 C40.19076918 66.53664946 38.09912166 63.42235757 36 60.3125 C33.03 55.919375 30.06 51.52625 27 47 C26.67 69.11 26.34 91.22 26 114 C17.42 114 8.84 114 0 114 C0 76.38 0 38.76 0 0 Z " fill="#355D73" transform="translate(1277,157)"/>
<path d="M0 0 C8.58 0 17.16 0 26 0 C30.49906618 8.99813236 30.49906618 8.99813236 32.17211914 13.30297852 C32.74134346 14.7587027 32.74134346 14.7587027 33.32206726 16.24383545 C33.72238663 17.27840881 34.12270599 18.31298218 34.53515625 19.37890625 C34.96685623 20.48445862 35.39855621 21.59001099 35.84333801 22.72906494 C36.77099991 25.10504897 37.69709444 27.48164544 38.62176514 29.85879517 C41.06648172 36.14344118 43.52167662 42.42397414 45.98046875 48.703125 C46.35435856 49.65834769 46.35435856 49.65834769 46.7358017 50.63286781 C50.32404759 59.79484637 53.97064917 68.93138493 57.67578125 78.046875 C58.11940506 79.13858505 58.56302887 80.2302951 59.02009583 81.35508728 C61.12482764 86.52806145 63.23805839 91.69743218 65.35961914 96.86352539 C66.11221716 98.7071633 66.86474419 100.55083019 67.6171875 102.39453125 C67.96296341 103.22938049 68.30873932 104.06422974 68.66499329 104.92437744 C68.97518906 105.68643494 69.28538483 106.44849243 69.60498047 107.23364258 C69.87615692 107.89302322 70.14733337 108.55240387 70.42672729 109.23176575 C71 111 71 111 71 114 C61.76 114 52.52 114 43 114 C40.69 107.73 38.38 101.46 36 95 C20.82 94.67 5.64 94.34 -10 94 C-10.33 95.98 -10.66 97.96 -11 100 C-11.96992696 102.50945091 -12.96199005 104.92793231 -14.0625 107.375 C-15.031875 109.56125 -16.00125 111.7475 -17 114 C-26.24 114 -35.48 114 -45 114 C-39.84515655 100.04547429 -34.37590153 86.22252104 -28.8799324 72.39928436 C-27.86233994 69.83919098 -26.8458956 67.27864236 -25.82941532 64.71810722 C-17.25881774 43.12973016 -8.645916 21.55832175 0 0 Z " fill="#355D73" transform="translate(518,157)"/>
<path d="M0 0 C8.58 0 17.16 0 26 0 C26 14.52 26 29.04 26 44 C40.85 44 55.7 44 71 44 C71 29.48 71 14.96 71 0 C79.58 0 88.16 0 97 0 C97 37.62 97 75.24 97 114 C88.42 114 79.84 114 71 114 C71 98.82 71 83.64 71 68 C56.15 68 41.3 68 26 68 C26 83.18 26 98.36 26 114 C17.42 114 8.84 114 0 114 C0 76.38 0 38.76 0 0 Z " fill="#355D73" transform="translate(192,157)"/>
<path d="M0 0 C1.02931641 -0.00773438 2.05863281 -0.01546875 3.11914062 -0.0234375 C19.92028884 0.01907015 33.69494185 5.46549498 45.5625 17.36328125 C51.73370059 24.14976523 60.1875 35.65965223 60.1875 45.25 C55.83505879 45.57092353 51.48565513 45.76522168 47.125 45.9375 C45.89587891 46.02966797 44.66675781 46.12183594 43.40039062 46.21679688 C39.70256528 46.3264359 36.74697719 46.27928028 33.1875 45.25 C30.69614755 42.65457434 29.22429044 40.20257248 27.65600586 36.97387695 C24.61385683 31.33110776 18.7090435 28.67938916 12.9375 26.375 C3.36938644 23.61272721 -5.17403595 24.76804622 -14.15625 28.765625 C-19.00707019 31.47637746 -22.20550668 34.31517503 -25 39.125 C-25.48855469 39.94742188 -25.97710938 40.76984375 -26.48046875 41.6171875 C-31.24703327 51.03849099 -31.52886426 63.18818791 -28.3125 73.25 C-24.83731697 81.24535118 -18.93155016 87.85082481 -10.91796875 91.44140625 C-1.68568596 93.84528366 10.67838589 93.92824738 19.1875 89.25 C26.12782135 85.16970119 30.63079103 79.92012692 33.1875 72.25 C42.0975 72.25 51.0075 72.25 60.1875 72.25 C56.95522032 88.41139839 50.06413203 99.50932511 36.5546875 109.203125 C21.06241042 118.62070411 2.383974 120.99242517 -15.3046875 117 C-24.37986847 114.28592719 -31.74292586 110.56894368 -38.8125 104.25 C-39.43898438 103.70472656 -40.06546875 103.15945313 -40.7109375 102.59765625 C-52.42274812 91.72970971 -57.53285212 76.15249499 -58.14868164 60.53613281 C-58.47312209 43.51831282 -52.66540771 27.58752404 -40.8125 15.25 C-28.68083455 4.73834451 -15.85797646 -0.11783017 0 0 Z " fill="#365E73" transform="translate(1060.8125,154.75)"/>
<path d="M0 0 C7.8795207 5.56888695 13.49118219 13.89234167 15.30859375 23.42578125 C15.30859375 25.73578125 15.30859375 28.04578125 15.30859375 30.42578125 C7.05859375 30.42578125 -1.19140625 30.42578125 -9.69140625 30.42578125 C-10.68140625 27.45578125 -11.67140625 24.48578125 -12.69140625 21.42578125 C-14.99208644 18.93367604 -14.99208644 18.93367604 -17.69140625 17.42578125 C-18.2534375 17.07128906 -18.81546875 16.71679688 -19.39453125 16.3515625 C-25.00114545 14.09175371 -33.38662034 14.41133748 -39.16015625 16.18359375 C-41.63430175 17.5150195 -43.42254329 19.07509043 -45.12890625 21.30078125 C-46.20205818 25.35491075 -46.31742824 28.20354784 -44.37890625 31.98828125 C-37.90750729 37.85768961 -29.66100167 39.79604394 -21.37890625 41.86328125 C-7.22963128 45.4284091 6.87988673 49.98595929 14.87109375 63.23828125 C18.37292891 71.00322007 18.60452156 80.22738151 16.05859375 88.36328125 C12.24881641 98.00184235 5.66187844 104.21157313 -3.75390625 108.30078125 C-16.84373809 113.60699496 -35.66230324 113.67931426 -48.9296875 108.75390625 C-59.46658919 103.68665509 -67.40926376 96.36903427 -71.69140625 85.42578125 C-72.02140625 81.46578125 -72.35140625 77.50578125 -72.69140625 73.42578125 C-64.11140625 73.42578125 -55.53140625 73.42578125 -46.69140625 73.42578125 C-45.70140625 76.72578125 -44.71140625 80.02578125 -43.69140625 83.42578125 C-39.88778427 87.53780501 -35.69296089 89.1633754 -30.14453125 89.6484375 C-22.81186986 89.88138116 -16.79046357 89.29240927 -11.19140625 84.11328125 C-9.34640505 80.8076541 -9.08155304 79.16113218 -9.69140625 75.42578125 C-11.62987184 70.67654054 -13.92704903 69.01817146 -18.56640625 66.92578125 C-24.50737407 64.63854518 -30.59849912 63.08915127 -36.75390625 61.48828125 C-44.71833799 59.40764598 -51.86914928 57.20010473 -58.69140625 52.42578125 C-59.69494141 51.75289062 -59.69494141 51.75289062 -60.71875 51.06640625 C-66.63423114 46.61416251 -70.32994126 39.67794132 -71.69140625 32.42578125 C-72.71254719 22.39533353 -71.52109552 14.77340014 -65.69140625 6.42578125 C-50.11229049 -11.3010727 -19.29236582 -11.28421397 0 0 Z " fill="#365D73" transform="translate(153.69140625,161.57421875)"/>
<path d="M0 0 C24.75 0 49.5 0 75 0 C75 7.26 75 14.52 75 22 C58.83 22 42.66 22 26 22 C26 29.59 26 37.18 26 45 C40.85 45 55.7 45 71 45 C71 52.26 71 59.52 71 67 C56.15 67 41.3 67 26 67 C26 75.25 26 83.5 26 92 C42.83 92 59.66 92 77 92 C77 99.26 77 106.52 77 114 C51.59 114 26.18 114 0 114 C0 76.38 0 38.76 0 0 Z " fill="#355D73" transform="translate(911,157)"/>
<path d="M0 0 C9.24 0 18.48 0 28 0 C29.79244141 4.90552734 29.79244141 4.90552734 31.62109375 9.91015625 C32.81213149 13.16420591 34.00404925 16.41793199 35.19604492 19.67163086 C36.00848301 21.89069725 36.82004146 24.11008593 37.63061523 26.32983398 C42.34863618 39.24801549 47.13727683 52.12378045 52.28623962 64.87770081 C52.64303299 65.77198288 52.99982635 66.66626495 53.36743164 67.58764648 C53.68361954 68.37042465 53.99980743 69.15320282 54.32557678 69.95970154 C55 72 55 72 55 75 C55.66 75 56.32 75 57 75 C57.13119736 74.2726062 57.26239471 73.5452124 57.39756775 72.79577637 C57.96400603 70.16704134 58.7100169 67.78766194 59.63891602 65.26757812 C59.97339249 64.35472046 60.30786896 63.44186279 60.65248108 62.50134277 C61.01595139 61.52121216 61.37942169 60.54108154 61.75390625 59.53125 C62.13304672 58.50052368 62.51218719 57.46979736 62.90281677 56.40783691 C63.70896018 54.21835898 64.51687299 52.02953183 65.32641602 49.84130859 C66.53707188 46.56873579 67.74269786 43.29434916 68.94726562 40.01953125 C73.87437022 26.64438673 78.90314321 13.31137856 84 0 C93.24 0 102.48 0 112 0 C108.62525834 11.24913886 108.62525834 11.24913886 106.92553711 15.62182617 C106.54279129 16.61215851 106.16004547 17.60249084 105.76570129 18.62283325 C105.3570433 19.66897797 104.94838531 20.71512268 104.52734375 21.79296875 C104.0914946 22.91806854 103.65564545 24.04316833 103.20658875 25.20236206 C102.03013388 28.23779045 100.8504854 31.27195346 99.66950226 34.3056221 C98.43935476 37.46816342 97.2135767 40.63239613 95.98779297 43.79663086 C95.61846523 44.74996669 95.61846523 44.74996669 95.24167633 45.72256184 C94.74168175 47.01320324 94.24170214 48.30385045 93.74173737 49.5945034 C92.98603689 51.54485486 92.22985358 53.49501855 91.47357178 55.44514465 C86.48800341 68.30379306 81.55139466 81.18107414 76.625 94.0625 C75.84498634 96.10116158 75.06495751 98.13981736 74.28491211 100.1784668 C72.52233152 104.78528483 70.76118689 109.39264813 69 114 C60.42 114 51.84 114 43 114 C37.00581966 99.11433745 31.18103591 84.17141398 25.4375 69.1875 C23.68134211 64.60923971 21.92468589 60.03117073 20.16796875 55.453125 C19.73292023 54.3189061 19.2978717 53.18468719 18.84963989 52.01609802 C16.03675265 44.68679999 13.20599987 37.364648 10.36328125 30.046875 C9.32075145 27.35775306 8.27860463 24.66848305 7.23660278 21.97915649 C6.58217191 20.2932313 5.92600006 18.6079808 5.26803589 16.9234314 C4.36694964 14.61601721 3.4718804 12.30635524 2.578125 9.99609375 C2.31352982 9.3236261 2.04893463 8.65115845 1.77632141 7.95831299 C0.69103996 5.13763939 0 3.05358936 0 0 Z " fill="#355D73" transform="translate(358,157)"/>
<path d="M0 0 C6.77905785 5.18221311 12.00181104 11.92591802 13.7578125 20.34375 C14.99473776 31.2303489 14.30780094 41.46407998 8.1328125 50.80078125 C2.85120762 57.43579739 -3.9099588 62.4687662 -12.47900391 63.65283203 C-24.196041 64.60093542 -34.17288356 63.6580458 -43.5546875 56.09375 C-50.29193897 49.72398498 -54.08933181 42.41141186 -54.578125 33.0390625 C-54.88407719 17.42873952 -54.88407719 17.42873952 -50.2421875 10.34375 C-49.8915625 9.725 -49.5409375 9.10625 -49.1796875 8.46875 C-44.63369891 1.14465727 -37.10809961 -3.0499251 -28.9140625 -5.1875 C-18.56993963 -7.0022584 -8.99700038 -5.52373977 0 0 Z " fill="#FDFDFE" transform="translate(1216.2421875,184.65625)"/>
<path d="M0 0 C8.58 0 17.16 0 26 0 C26 37.62 26 75.24 26 114 C17.42 114 8.84 114 0 114 C0 76.38 0 38.76 0 0 Z " fill="#345C72" transform="translate(316,157)"/>
<path d="M0 0 C2.83082417 2.83082417 3.84207136 6.29178496 5.2578125 9.96484375 C5.7196846 11.1485128 5.7196846 11.1485128 6.19088745 12.35609436 C6.84063704 14.02536611 7.4877147 15.69567998 8.13232422 17.36694336 C9.12084726 19.92674639 10.12034185 22.48206622 11.12109375 25.03710938 C11.75066461 26.65859628 12.37959255 28.28033298 13.0078125 29.90234375 C13.3077713 30.66804184 13.6077301 31.43373993 13.91677856 32.22264099 C15.0902951 35.28275658 16 37.69307154 16 41 C5.44 41 -5.12 41 -16 41 C-12.57916798 31.0883585 -8.9997406 21.26815159 -5.1875 11.5 C-4.79054932 10.47898193 -4.39359863 9.45796387 -3.98461914 8.40600586 C-3.61199951 7.45733643 -3.23937988 6.50866699 -2.85546875 5.53125 C-2.52184326 4.68111328 -2.18821777 3.83097656 -1.84448242 2.95507812 C-1 1 -1 1 0 0 Z " fill="#F9FAFA" transform="translate(531,190)"/>
</svg>
